<mxfile host="app.diagrams.net" modified="2023-09-22T03:21:14.561Z" agent="Mozilla/5.0 (Windows NT 10.0; Win64; x64) AppleWebKit/537.36 (KHTML, like Gecko) Chrome/116.0.0.0 Safari/537.36" version="21.7.4" etag="2YmHVFkPKqldfHibe1U1" type="github">
  <diagram name="第 1 页" id="dx5LBfXrdaf_6E6NQgxS">
    <mxGraphModel>
      <root>
        <mxCell id="0" />
        <mxCell id="1" parent="0" />
      </root>
    </mxGraphModel>
  </diagram>
</mxfile>
